PathFileType	4	(X/Y/Z)	C:/Users/beibeiliu/ov580/test_trc/User2\sequence.16_training_dense_right.trc
DataRate	CameraRate	NumFrames	NumMarkers	Units	OrigDataRate	OrigDataStartFrame	OrigNumFrames
120	120	18	19	mm	120	1	86
Frame#	Time	ThumbCMC			ThumbMCP			ThumbIP			ThumbTip			IndexMCP			IndexPIP			IndexTip			MiddleMCP			MiddlePIP			MiddleTip			RingMCP			RingPIP			RingTip			PinkyMCP			PinkyPIP			PinkyTip			BackHand1			BackHand2			BackHand3	
		X0	Y0	Z0	X1	Y1	Z1	X2	Y2	Z2	X3	Y3	Z3	X4	Y4	Z4	X5	Y5	Z5	X6	Y6	Z6	X7	Y7	Z7	X8	Y8	Z8	X9	Y9	Z9	X10	Y10	Z10	X11	Y11	Z11	X12	Y12	Z12	X13	Y13	Z13	X14	Y14	Z14	X15	Y15	Z15	X16	Y16	Z16	X17	Y17	Z17	X18	Y18	Z18	
0	0	131.072	-18.8113	-21.4853	101.574	-24.8296	-37.4205	76.9774	-30.285	-60.9497	60.7568	-36.8317	-77.5971	127.069	-3.32247	-104.681	114.294	-7.49417	-132.396	102.493	-8.83639	-153.209	159.702	-1.47534	-117.133	152.078	-4.63676	-147.012	151.975	-7.69312	-179.228	184.958	-12.5061	-115.849	186.649	-16.184	-142.237	190.029	-17.3219	-170.844	208.941	-26.5391	-101.542	219.1	-33.055	-122.849	230.297	-32.6099	-140.534	188.955	-1.95158	-58.6046	193.325	4.0034	-24.3943	157.021	5.19891	-36.4318	
1	0.00833333	128.86	-18.9295	-26.3174	106.775	-26.6569	-38.3821	79.475	-30.9131	-63.8314	59.8545	-38.1217	-75.0661	128.608	-4.74175	-104.917	113.999	-6.84537	-131.339	106.688	-9.69976	-158.152	157.751	-2.8016	-115.686	152.536	-6.03925	-150.842	153.144	-7.85747	-180.786	183.946	-13.0032	-117.887	192.205	-17.977	-138.994	190.014	-18.1491	-170.308	209.083	-27.7343	-100.509	220.753	-33.6693	-123.855	228.552	-33.1485	-145.751	189.758	-3.86517	-58.2619	194.406	1.4486	-24.6686	157.094	5.37078	-39.5164	
2	0.0166667	129.39	-18.7694	-20.9861	107.169	-26.1984	-41.1228	79.4267	-30.6178	-63.2082	63.3907	-37.2337	-78.0532	130.176	-4.21729	-105.593	116.112	-6.67471	-127.586	109.957	-8.5626	-155.203	158.568	-2.6554	-120.685	154.098	-5.61206	-150.125	155.352	-7.68889	-181.996	188.001	-13.1041	-116.204	189.226	-17.1243	-138.762	191.712	-18.7085	-168.884	210.735	-26.0823	-101.524	220.873	-34.1049	-121.309	228.803	-32.8947	-141.735	191.654	-3.49196	-59.1358	198.092	2.16841	-27.438	160.433	5.96772	-38.1629	
3	0.025	128.389	-18.2665	-23.8942	105.767	-26.0181	-38.1662	80.5014	-30.6652	-65.3321	61.6289	-38.028	-78.4539	129.354	-3.46852	-103.157	115.534	-6.31202	-131.709	111.062	-7.70838	-157.131	163.912	-1.79228	-118.939	159.211	-5.06935	-151.841	159.287	-8.49859	-180.844	187.136	-11.6619	-117.936	191.355	-16.0828	-142.669	190.986	-18.1538	-169.508	210.957	-25.8238	-100.277	219.542	-33.3392	-119.83	231.93	-32.1052	-144.824	189.634	-1.27092	-58.743	197.359	0.161686	-24.3815	156.79	5.46752	-41.0828	
4	0.0333333	126.949	-16.8894	-25.0688	106.404	-25.7928	-39.5938	80.2198	-30.7463	-63.8003	62.0387	-38.4685	-79.5312	129.306	-2.41678	-107.214	115.861	-4.69691	-128.64	110.942	-7.6978	-156.428	159.707	-0.462793	-114.996	157.133	-4.76528	-151.596	156.529	-7.04894	-179.038	186.184	-12.0477	-112.959	188.027	-15.7085	-143.462	190.838	-16.7309	-171.028	211.395	-26.69	-97.6279	220.928	-32.1969	-124.164	231.366	-32.756	-145.179	190.345	-2.03086	-55.7848	200.085	2.16622	-25.006	162.374	5.26625	-38.1077	
5	0.0416667	127.142	-18.1026	-26.5602	107.988	-27.1648	-41.1352	82.8957	-33.3055	-60.6516	63.8463	-39.9106	-76.7606	126.766	-3.51329	-104.851	118.649	-5.45867	-132.511	103.793	-6.90507	-157.286	162.147	-1.28045	-115.766	160.299	-4.38827	-148.677	156.618	-7.57059	-177.62	184.951	-12.4092	-116.737	190.927	-16.4552	-140.272	188.339	-18.5733	-167.286	213.114	-27.5229	-100.957	217.99	-32.6136	-121.21	233.373	-31.4098	-144.966	193.85	-3.79487	-59.3032	196.636	0.819952	-27.7355	161.226	4.90213	-42.2293	
6	0.05	129.355	-18.5493	-26.5713	104.521	-25.6474	-39.0882	77.4559	-31.4305	-62.1165	60.4168	-39.9947	-75.6089	127.949	-2.86914	-106.05	113.672	-4.56063	-131.46	109.371	-6.30238	-158.267	159.346	0.0763212	-117.159	157.995	-3.89855	-148.949	157.313	-7.16011	-180.115	189.266	-12.151	-117.176	192.203	-16.5724	-140.858	192.406	-18.1983	-167.457	210.165	-26.2259	-99.2827	222.735	-33.7741	-122.754	233.772	-32.0239	-145.861	190.643	-1.44914	-56.5374	194.456	1.45399	-25.5625	158.877	5.08636	-41.6524	
7	0.0583333	128.486	-18.586	-22.4517	104.454	-25.4795	-39.9337	78.7846	-31.5297	-62.0968	60.4311	-38.6387	-79.0265	125.939	-0.879337	-106.042	116.49	-4.18116	-134.904	106.938	-5.56291	-160.973	161.079	0.455699	-119.359	158.078	-3.02544	-151.01	159.844	-7.48156	-185.157	189.673	-11.4543	-117.953	193.216	-15.2866	-142.698	189.411	-16.6627	-168.484	210.477	-24.5983	-98.3941	219.019	-31.5849	-120.547	233.89	-29.9365	-142.572	189.268	0.885181	-60.8672	195.039	2.91856	-23.8641	156.618	6.70001	-38.3768	
8	0.0666667	130.654	-19.5721	-27.4806	104.877	-26.3609	-39.791	82.2371	-31.7274	-62.2897	63.4425	-38.8795	-79.9519	129.166	0.309247	-107.256	118.05	-1.63741	-133.776	113.184	-7.96888	-158.911	162.908	3.56981	-116.68	159.922	-1.79635	-153.23	158.356	-10.5772	-179.324	186.816	-6.17501	-112.607	189.765	-11.1399	-140.329	188.926	-19.2014	-172.825	212.754	-22.9978	-99.4749	219.54	-29.1678	-123.412	234.144	-29.922	-140.502	194.106	0.47434	-58.417	198.153	1.16861	-26.022	160.566	4.64741	-36.7358	
9	0.075	131.057	-16.2838	-21.3688	106.655	-22.2036	-41.0734	84.1343	-24.8334	-64.1482	67.8405	-29.4597	-86.3809	136.033	8.11095	-106.056	123.665	3.50249	-131.806	121.362	-17.7934	-159.562	162.737	12.9016	-115.741	162.021	1.87006	-151.76	157.261	-21.921	-173.249	189.267	1.55494	-109.842	188.438	-4.36013	-140.304	180.476	-27.0748	-165.473	216.305	-18.4464	-97.9199	222.189	-22.5854	-122.456	230.944	-21.4929	-144.614	191.386	0.8721	-53.4852	200.009	1.67537	-25.1097	165.052	8.88435	-33.8487	
10	0.0833333	136.461	-9.38183	-24.189	108.954	-11.8877	-43.6628	86.5375	-14.1802	-68.2563	75.8716	-17.678	-92.6339	141.773	15.326	-101.73	133.638	1.49508	-135.554	136.823	-29.5308	-142.891	168.484	14.646	-115.201	165.95	-3.78409	-146.018	156.608	-41.7524	-144.773	192.499	5.661	-113.363	187.667	-8.45583	-139.904	172.83	-41.4767	-141.955	218.603	-13.2815	-96.6001	223.335	-15.7264	-122.584	231.617	-17.2208	-149.623	195.589	5.75379	-50.1911	203.066	6.40469	-19.1451	167.743	12.1081	-31.7672	
11	0.0916667	137.886	-7.25284	-20.8261	118.223	-8.38131	-44.8384	92.2997	-5.42633	-73.8772	79.7618	-7.34561	-97.5161	144.234	15.8048	-106.183	140.484	-7.39642	-130.753	138.389	-38.5808	-112.712	167.297	11.3493	-113.67	161.502	-20.0882	-136.664	151.904	-47.1429	-109.848	192.155	1.68274	-115.576	184.371	-22.2108	-134.075	167.568	-46.6691	-109.703	216.476	-8.40199	-101.321	225.47	-14.4669	-126.905	231.102	-19.5394	-150.101	200.54	9.21529	-55.5817	205.321	6.96417	-20.7236	166.95	17.0333	-34.7228	
12	0.1	136.881	-2.97135	-22.6063	118.474	-4.22226	-46.5381	95.9038	-2.43047	-70.9915	83.2031	-2.20097	-95.22	143.917	13.1538	-109.991	140.132	-16.5062	-122.56	137.204	-35.335	-95.5861	166.07	4.45415	-118.401	160.587	-31.8448	-122.013	155.794	-40.892	-86.301	189.499	-5.07745	-117.743	179.589	-35.1328	-123.788	165.551	-41.2949	-90.9301	219.931	-9.60544	-102.219	223.024	-16.0424	-127.156	227.23	-21.4124	-151.602	201.588	12.896	-54.3841	206.592	6.75644	-22.0353	170.631	20.5588	-31.082	
13	0.108333	141.57	-1.65499	-27.3237	118.372	-2.07794	-49.0662	99.2464	1.86334	-75.2772	85.7602	0.65958	-97.1391	148.72	12.092	-107.048	142.033	-18.8808	-117.29	141.283	-29.945	-80.48	172.297	3.47288	-114.113	160.476	-31.1645	-117.413	157.785	-32.4685	-74.5632	191.167	-8.35144	-118.452	174.348	-31.7115	-119.853	168.992	-37.0314	-86.0279	221.343	-10.346	-100.369	224.55	-18.38	-129.044	226.551	-20.5373	-149.217	202.892	12.7631	-51.9973	208.02	7.73788	-23.2973	171.539	22.0534	-30.9214	
14	0.116667	140.252	0.661987	-28.8881	116.342	0.645976	-49.2423	100.482	5.30912	-78.6594	89.3823	7.59726	-106.316	147.049	14.9145	-111.116	143.695	-17.1393	-114.472	142.132	-24.4212	-81.2382	168.369	7.18197	-114.912	162.128	-26.9739	-116.771	158.343	-26.8649	-74.7473	193	-3.62138	-117.691	176.255	-31.4373	-117.488	170.591	-28.1026	-81.6025	221.015	-5.81481	-102.18	228.056	-14.1134	-125.568	232.11	-16.0404	-152.559	206.801	15.2121	-54.4462	207.097	10.3341	-21.3416	172.33	23.3929	-35.4662	
15	0.125	140.174	4.19636	-30.8304	120.759	2.98004	-53.6742	102.949	7.66308	-82.3638	95.2249	8.28745	-107.454	149.454	19.754	-111.568	144.414	-12.7987	-115.907	144.068	-20.6927	-82.6442	172.126	10.4557	-117.482	160.957	-22.945	-115.523	159.076	-24.4451	-78.0658	191.736	4.01092	-119.06	184.628	-25.5174	-122.403	175.539	-26.5363	-84.1222	225.386	0.597538	-102.876	231.44	-7.09513	-126.36	237.122	-8.18268	-150.993	209.964	20.5534	-53.2478	211.92	14.6234	-23.7586	174.021	25.4079	-32.7675	
16	0.133333	146.635	4.86726	-33.171	123.457	5.82886	-57.9643	111.277	9.9938	-90.4727	101.309	9.28353	-114.461	155.459	19.2368	-114.53	148.264	-11.6579	-118.439	151.745	-18.7737	-81.7594	178.015	13.0042	-116.958	166.877	-21.8341	-118.082	167.425	-24.4512	-78.4177	199.005	4.97617	-115.947	185.823	-25.9139	-120.073	176.993	-25.0261	-83.936	230.9	0.267362	-99.8048	236.504	-8.1866	-129.382	242.742	-12.447	-153.058	212.043	22.2721	-53.2685	214.817	15.5846	-20.8351	178.597	26.8768	-34.0543	
17	0.141667	147.106	10.8241	-35.8716	130.206	7.53691	-63.0196	111.854	8.33768	-90.0335	103.431	6.27103	-113.01	161.834	10.7503	-116.859	152.211	-19.453	-116.087	151.83	-20.2359	-81.2443	182.274	-1.89277	-118.77	166.674	-33.192	-110.148	161.351	-25.0587	-73.0058	198.698	-9.63688	-118.516	184.291	-39.2429	-112.477	174.47	-29.9811	-81.4329	232.136	-12.5698	-104.157	237.31	-27.9924	-128.215	242.755	-39.6926	-147.865	217.578	16.5502	-56.9051	218.16	13.6972	-21.5412	180.937	28.6317	-38.0335	
